<svg width="36" height="36" viewBox="0 0 36 36" fill="none" xmlns="http://www.w3.org/2000/svg">
<path fill-rule="evenodd" clip-rule="evenodd" d="M18 6C24.6274 6 30 11.3726 30 18C30 24.6274 24.6274 30 18 30C11.3726 30 6 24.6274 6 18C6 11.3726 11.3726 6 18 6ZM19.5 13C19.5 12.4477 19.0523 12 18.5 12H17.5C16.9477 12 16.5 12.4477 16.5 13V15.5C16.5 16.0523 16.0523 16.5 15.5 16.5H13C12.4477 16.5 12 16.9477 12 17.5V18.5C12 19.0523 12.4477 19.5 13 19.5L15.5 19.5C16.0523 19.5 16.5 19.9477 16.5 20.5V23C16.5 23.5523 16.9477 24 17.5 24H18.5C19.0523 24 19.5 23.5523 19.5 23L19.5 20.5C19.5 19.9477 19.9477 19.5 20.5 19.5L23 19.5C23.5523 19.5 24 19.0523 24 18.5V17.5C24 16.9477 23.5523 16.5 23 16.5H20.5C19.9477 16.5 19.5 16.0523 19.5 15.5L19.5 13Z" fill="white"/>
</svg>
