<svg width="100" height="100" viewBox="0 0 100 100" fill="none" xmlns="http://www.w3.org/2000/svg">
<path d="M54.1666 12.5H34.1666C29.4996 12.5 27.166 12.5 25.3834 13.4083C23.8154 14.2072 22.5405 15.482 21.7416 17.0501C20.8333 18.8327 20.8333 21.1662 20.8333 25.8333V74.1667C20.8333 78.8337 20.8333 81.1675 21.7416 82.95C22.5405 84.5179 23.8154 85.7929 25.3834 86.5917C27.166 87.5 29.4996 87.5 34.1666 87.5H50M54.1666 12.5L79.1666 37.5M54.1666 12.5V30.8333C54.1666 33.1669 54.1666 34.3337 54.6208 35.225C55.0204 36.009 55.6575 36.6464 56.4416 37.0459C57.3329 37.5 58.4996 37.5 60.8333 37.5H79.1666M79.1666 37.5V50M70.8333 79.1667H87.5M79.1666 70.8333V87.5" stroke="white" stroke-width="9" stroke-linecap="round" stroke-linejoin="round"/>
</svg>
