<svg width="35" height="35" viewBox="0 0 35 35" fill="none" xmlns="http://www.w3.org/2000/svg">
<path d="M18.9583 5.83334H12.8333C10.383 5.83334 9.1579 5.83334 8.22205 6.31019C7.39883 6.72964 6.72954 7.39892 6.3101 8.22214C5.83325 9.15799 5.83325 10.3831 5.83325 12.8333V22.1667C5.83325 24.617 5.83325 25.842 6.3101 26.7779C6.72954 27.6012 7.39883 28.2704 8.22205 28.6898C9.1579 29.1667 10.383 29.1667 12.8333 29.1667H22.1666C24.6169 29.1667 25.8419 29.1667 26.7778 28.6898C27.6011 28.2704 28.2703 27.6012 28.6897 26.7779C29.1666 25.842 29.1666 24.617 29.1666 22.1667V16.0417" stroke="white" stroke-width="3" stroke-linecap="round" stroke-linejoin="round"/>
<path d="M5.83325 23.3333L12.0937 17.0729C12.6632 16.5034 13.5866 16.5034 14.1561 17.0729L18.9583 21.875M18.9583 21.875L23.0312 17.802C23.6007 17.2325 24.5241 17.2325 25.0936 17.802L29.1666 21.875M18.9583 21.875L22.2395 25.1563" stroke="white" stroke-width="3" stroke-linecap="round" stroke-linejoin="round"/>
<path d="M24.7917 4.375L27.7084 7.29167M27.7084 7.29167L30.6251 10.2083M27.7084 7.29167L30.6251 4.375M27.7084 7.29167L24.7917 10.2083" stroke="white" stroke-width="3" stroke-linecap="round" stroke-linejoin="round"/>
</svg>
