<svg width="34" height="34" viewBox="0 0 34 34" fill="none" xmlns="http://www.w3.org/2000/svg">
<path d="M28.1802 11.4207L28.1802 11.4207L19.1964 21.6878L18.8202 21.3586L19.1964 21.6878C18.2071 22.8185 16.5346 22.8393 15.5224 21.7364L15.5218 21.7358L15.511 21.7239L15.5109 21.7239L6.18795 11.4364L6.18794 11.4364C5.7398 10.9419 5.77742 10.1778 6.27188 9.72964C6.76638 9.28147 7.53052 9.31912 7.97864 9.81356L7.97865 9.81357L17.3017 20.101C17.3186 20.1197 17.3313 20.1281 17.3374 20.1314C17.344 20.1279 17.3585 20.1184 17.3777 20.0964L17.754 20.4257L17.3777 20.0964L26.3615 9.82931L26.3615 9.8293C26.8009 9.32713 27.5643 9.27614 28.0665 9.71563L28.1802 11.4207ZM28.1802 11.4207C28.6196 10.9185 28.5688 10.1551 28.0665 9.71566L28.1802 11.4207Z" fill="white" stroke="white"/>
</svg>
