<svg width="41" height="41" viewBox="0 0 41 41" fill="none" xmlns="http://www.w3.org/2000/svg">
<path fill-rule="evenodd" clip-rule="evenodd" d="M20.5 35.875C20.5 34.9315 21.2648 34.1667 22.2083 34.1667H35.875C36.8185 34.1667 37.5833 34.9315 37.5833 35.875C37.5833 36.8185 36.8185 37.5833 35.875 37.5833H22.2083C21.2648 37.5833 20.5 36.8185 20.5 35.875Z" fill="#ffffff"/>
<path fill-rule="evenodd" clip-rule="evenodd" d="M35.4882 13.8374C38.2383 11.0765 38.1214 7.45093 36.068 5.23063C35.0666 4.148 33.6415 3.45647 32.0273 3.41834C30.4071 3.38007 28.7285 3.99967 27.1795 5.29558C27.1399 5.32872 27.1018 5.36364 27.0654 5.40023L4.91049 27.6436C3.95378 28.604 3.41663 29.9045 3.41663 31.2603V34.1533C3.41663 36.0351 4.94041 37.5833 6.83984 37.5833H9.70782C11.0706 37.5833 12.3772 37.0406 13.3389 36.075L35.4882 13.8374ZM29.3954 9.89629C28.7283 9.22915 27.6466 9.22915 26.9795 9.89629C26.3124 10.5634 26.3124 11.6451 26.9795 12.3122L28.6878 14.0206C29.3549 14.6877 30.4366 14.6877 31.1038 14.0206C31.7709 13.3534 31.7709 12.2718 31.1038 11.6046L29.3954 9.89629Z" fill="#ffffff"/>
</svg>
