<svg width="37" height="37" viewBox="0 0 37 37" fill="none" xmlns="http://www.w3.org/2000/svg">
<g clip-path="url(#clip0_204_2)">
<path d="M36.8577 17.8596C33.5134 11.1 26.5403 6.40385 18.5 6.40385C10.4596 6.40385 3.4865 11.1 0.142274 17.8596C-0.0711877 18.2865 -0.0711877 18.7846 0.142274 19.1404C3.4865 25.9 10.4596 30.5962 18.5 30.5962C26.5403 30.5962 33.5134 25.9 36.8577 19.1404C37.0711 18.7135 37.0711 18.2865 36.8577 17.8596ZM18.5 26.3269C14.1596 26.3269 10.673 22.8404 10.673 18.5C10.673 14.1596 14.1596 10.6731 18.5 10.6731C22.8403 10.6731 26.3269 14.1596 26.3269 18.5C26.3269 22.8404 22.8403 26.3269 18.5 26.3269Z" fill="#212121"/>
<path d="M18.4999 13.5192C15.7249 13.5192 13.5192 15.725 13.5192 18.5C13.5192 21.275 15.7249 23.4808 18.4999 23.4808C21.2749 23.4808 23.4807 21.275 23.4807 18.5C23.4807 15.725 21.2749 13.5192 18.4999 13.5192Z" fill="#212121"/>
</g>
<defs>
<clipPath id="clip0_204_2">
<rect width="37" height="37" fill="white"/>
</clipPath>
</defs>
</svg>
