<svg width="38" height="38" viewBox="0 0 38 38" fill="none" xmlns="http://www.w3.org/2000/svg">
<path opacity="0.1" d="M28.0595 12.7994L23.3095 8.38867C21.2655 6.49067 20.2435 5.54167 19 5.54167C17.7564 5.54167 16.7344 6.49067 14.6904 8.38867L9.94044 12.7994C8.9432 13.7254 8.44459 14.1884 8.1806 14.7937C7.91663 15.3991 7.91663 16.0795 7.91663 17.4404V26.9165C7.91663 29.9022 7.91663 31.395 8.84413 32.3225C9.77161 33.2498 11.2644 33.2498 14.25 33.2498H15.4375V26.9165C15.4375 24.9491 17.0325 23.354 19 23.354C20.9674 23.354 22.5625 24.9491 22.5625 26.9165V33.2498H23.75C26.7355 33.2498 28.2283 33.2498 29.1558 32.3225C30.0833 31.395 30.0833 29.9022 30.0833 26.9165V17.4404C30.0833 16.0795 30.0833 15.3991 29.8193 14.7937C29.5554 14.1884 29.0567 13.7254 28.0595 12.7994Z" fill="#323232"/>
<path d="M30.0833 14.25V26.9167C30.0833 29.9022 30.0833 31.395 29.1558 32.3225C28.2283 33.25 26.7355 33.25 23.75 33.25H22.1666H15.8333H14.25C11.2644 33.25 9.77161 33.25 8.84413 32.3225C7.91663 31.395 7.91663 29.9022 7.91663 26.9167V14.25" stroke="#323232" stroke-width="3" stroke-linejoin="round"/>
<path d="M4.75 17.4167L11.875 11.0833L16.8962 6.62006C18.0959 5.55357 19.9041 5.55357 21.1038 6.62006L26.125 11.0833L33.25 17.4167" stroke="#323232" stroke-width="4" stroke-linecap="round" stroke-linejoin="round"/>
<path d="M15.8334 33.25V26.9167C15.8334 25.1677 17.2511 23.75 19 23.75C20.749 23.75 22.1667 25.1677 22.1667 26.9167V33.25" stroke="#323232" stroke-width="3" stroke-linecap="round" stroke-linejoin="round"/>
</svg>
