<svg width="38" height="38" viewBox="0 0 38 38" fill="none" xmlns="http://www.w3.org/2000/svg">
<path d="M30.0833 14.25V26.9167C30.0833 29.9022 30.0833 31.395 29.1558 32.3225C28.2283 33.25 26.7355 33.25 23.75 33.25H22.1666H15.8333H14.25C11.2644 33.25 9.77161 33.25 8.84413 32.3225C7.91663 31.395 7.91663 29.9022 7.91663 26.9167V14.25" stroke="#ffffff" stroke-width="3" stroke-linejoin="round"/>
<path d="M4.75 17.4167L11.875 11.0833L16.8962 6.62006C18.0959 5.55357 19.9041 5.55357 21.1038 6.62006L26.125 11.0833L33.25 17.4167" stroke="#ffffff" stroke-width="4" stroke-linecap="round" stroke-linejoin="round"/>
<path d="M15.8334 33.25V26.9167C15.8334 25.1677 17.2511 23.75 19 23.75C20.749 23.75 22.1667 25.1677 22.1667 26.9167V33.25" stroke="#ffffff" stroke-width="3" stroke-linecap="round" stroke-linejoin="round"/>
</svg>
