<svg width="37" height="37" viewBox="0 0 37 37" fill="#ffffff" xmlns="http://www.w3.org/2000/svg">
    <g clip-path="url(#clip0_188_23)">
        <path d="M13.8796 12.7188C13.8796 13.6387 13.5142 14.521 12.8637 15.1715C12.2131 15.822 11.3309 16.1875 10.4109 16.1875C9.49092 16.1875 8.60863 15.822 7.95811 15.1715C7.30759 14.521 6.94214 13.6387 6.94214 12.7188C6.94214 11.7988 7.30759 10.9165 7.95811 10.266C8.60863 9.61546 9.49092 9.25 10.4109 9.25C11.3309 9.25 12.2131 9.61546 12.8637 10.266C13.5142 10.9165 13.8796 11.7988 13.8796 12.7188Z"/>
        <path d="M3.46875 4.625C2.54878 4.625 1.66649 4.99046 1.01597 5.64097C0.365457 6.29149 0 7.17378 0 8.09375L0 28.9062C0 29.8262 0.365457 30.7085 1.01597 31.359C1.66649 32.0095 2.54878 32.375 3.46875 32.375H33.5312C34.4512 32.375 35.3335 32.0095 35.984 31.359C36.6345 30.7085 37 29.8262 37 28.9062V8.09375C37 7.17378 36.6345 6.29149 35.984 5.64097C35.3335 4.99046 34.4512 4.625 33.5312 4.625H3.46875ZM33.5312 6.9375C33.8379 6.9375 34.132 7.05932 34.3488 7.27616C34.5657 7.493 34.6875 7.78709 34.6875 8.09375V21.9688L25.9578 17.4663C25.741 17.3577 25.4954 17.32 25.256 17.3586C25.0165 17.3972 24.7952 17.5101 24.6235 17.6814L16.0441 26.2607L9.89287 22.163C9.67078 22.0151 9.40439 21.9486 9.13886 21.9748C8.87333 22.0009 8.62501 22.1181 8.436 22.3064L2.31712 27.75V28.9988C2.31436 28.968 2.31282 28.9371 2.3125 28.9062V8.09375C2.3125 7.78709 2.43432 7.493 2.65116 7.27616C2.868 7.05932 3.16209 6.9375 3.46875 6.9375H33.5312Z"/>
    </g>
</svg>
