<svg width="43" height="43" viewBox="0 0 43 43" fill="none" xmlns="http://www.w3.org/2000/svg">
<path d="M24.7948 31.399C24.7841 31.4025 23.7933 31.7322 22.9333 31.7322C22.4585 31.7322 22.2668 31.6337 22.2058 31.5907C21.9048 31.381 21.3458 30.9887 22.3026 29.0823L24.0943 25.5097C25.1567 23.3884 25.3144 21.337 24.5332 19.7316C23.8954 18.4183 22.6717 17.5171 21.0932 17.1946C20.5253 17.0782 19.9483 17.0208 19.3768 17.0208C16.064 17.0208 13.8334 18.9558 13.7402 19.0382C13.4195 19.3213 13.3443 19.7907 13.5575 20.1598C13.7725 20.5289 14.215 20.6973 14.6235 20.5576C14.6325 20.554 15.6251 20.2225 16.4851 20.2225C16.9563 20.2225 17.1462 20.3211 17.2053 20.3623C17.5081 20.5737 18.0689 20.9715 17.1139 22.8742L15.3223 26.4486C14.258 28.5717 14.1021 30.6232 14.8833 32.2267C15.5211 33.54 16.7431 34.4412 18.3251 34.7637C18.8877 34.8766 19.4646 34.9375 20.0343 34.9375C23.3489 34.9375 25.5813 33.0025 25.6745 32.9201C25.9952 32.6388 26.0705 32.1676 25.8573 31.7985C25.6423 31.4312 25.1961 31.2664 24.7948 31.399Z" fill="#323232"/>
<path d="M23.2917 15.231C25.7654 15.231 27.7708 13.2256 27.7708 10.7518C27.7708 8.27802 25.7654 6.27262 23.2917 6.27262C20.8179 6.27262 18.8125 8.27802 18.8125 10.7518C18.8125 13.2256 20.8179 15.231 23.2917 15.231Z" fill="#323232"/>
</svg>
