<svg width="36" height="36" viewBox="0 0 36 36" fill="none" xmlns="http://www.w3.org/2000/svg">
    <g clip-path="url(#clip0_187_16)">
        <path d="M26.4 0.000864983C25.7633 0.000872566 25.1527 0.253659 24.7024 0.703614C24.2522 1.15357 23.9993 1.76384 23.9993 2.40016V3.60098H2.4007C1.76401 3.60099 1.1534 3.85376 0.703182 4.30369C0.252966 4.75362 2.52761e-05 5.36385 1.00153e-10 6.00016C-2.87953e-06 6.31524 0.0620909 6.62723 0.182736 6.91833C0.303381 7.20942 0.480215 7.47392 0.703141 7.69671C0.926067 7.91951 1.19072 8.09624 1.48199 8.21682C1.77326 8.33739 2.08544 8.39946 2.4007 8.39946H23.9993V9.60169C23.9993 10.238 24.2522 10.8483 24.7024 11.2982C25.1527 11.7482 25.7633 12.001 26.4 12.001C27.0367 12.001 27.6473 11.7482 28.0976 11.2982C28.5478 10.8483 28.8007 10.238 28.8007 9.60169V8.39946H33.5992C33.9145 8.39947 34.2267 8.33742 34.5179 8.21685C34.8092 8.09628 35.0739 7.91955 35.2968 7.69675C35.5198 7.47396 35.6966 7.20946 35.8173 6.91835C35.9379 6.62725 36 6.31525 36 6.00016C36 5.68508 35.9379 5.3731 35.8172 5.08201C35.6966 4.79092 35.5197 4.52643 35.2968 4.30365C35.0738 4.08086 34.8092 3.90414 34.5179 3.78358C34.2266 3.66302 33.9144 3.60097 33.5992 3.60098H28.8007V2.40016C28.8007 1.76384 28.5478 1.15357 28.0976 0.703614C27.6473 0.253659 27.0367 0.000872566 26.4 0.000864983ZM9 12.0009C8.68472 12.0009 8.37253 12.0629 8.08125 12.1835C7.78997 12.304 7.5253 12.4808 7.30236 12.7036C7.07943 12.9264 6.90258 13.1909 6.78193 13.482C6.66128 13.7731 6.59918 14.0851 6.59918 14.4002V15.6009H2.40141C2.08614 15.6009 1.77396 15.6629 1.48269 15.7835C1.19142 15.9041 0.92677 16.0808 0.703844 16.3036C0.480918 16.5264 0.304084 16.7909 0.183439 17.082C0.062794 17.3731 0.000700205 17.6851 0.000703114 18.0002C0.000700205 18.3152 0.062794 18.6272 0.183439 18.9183C0.304084 19.2094 0.480918 19.4739 0.703844 19.6967C0.92677 19.9195 1.19142 20.0962 1.48269 20.2168C1.77396 20.3374 2.08614 20.3995 2.40141 20.3995H6.59918V21.6017C6.59918 21.9168 6.66128 22.2288 6.78193 22.5199C6.90258 22.811 7.07943 23.0755 7.30236 23.2983C7.5253 23.5211 7.78997 23.6978 8.08125 23.8184C8.37253 23.9389 8.68472 24.001 9 24.001C9.63671 24.001 10.2473 23.7482 10.6976 23.2982C11.1478 22.8483 11.4007 22.238 11.4007 21.6017V20.3995H33.6C33.9153 20.3995 34.2275 20.3374 34.5187 20.2168C34.81 20.0962 35.0746 19.9195 35.2976 19.6967C35.5205 19.4739 35.6973 19.2094 35.818 18.9183C35.9386 18.6272 36.0007 18.3152 36.0007 18.0002C36.0007 17.6851 35.9386 17.3731 35.818 17.082C35.6973 16.7909 35.5205 16.5264 35.2976 16.3036C35.0746 16.0808 34.81 15.9041 34.5187 15.7835C34.2275 15.6629 33.9153 15.6009 33.6 15.6009H11.4007V14.4002C11.4007 13.7638 11.1478 13.1536 10.6976 12.7036C10.2473 12.2537 9.63671 12.0009 9 12.0009ZM16.8 24.001C16.1633 24.001 15.5527 24.2538 15.1025 24.7037C14.6523 25.1536 14.3993 25.7639 14.3993 26.4002V27.6009H2.40141C2.08614 27.6009 1.77396 27.6629 1.48269 27.7835C1.19142 27.9041 0.92677 28.0808 0.703844 28.3036C0.480918 28.5264 0.304084 28.7909 0.183439 29.082C0.062794 29.3731 0.000700205 29.6851 0.000703114 30.0002C0.000728436 30.6365 0.25367 31.2467 0.703885 31.6966C1.1541 32.1466 1.76472 32.3993 2.40141 32.3993H14.3993V33.6017C14.3993 34.238 14.6523 34.8482 15.1025 35.2982C15.5527 35.7481 16.1633 36.0009 16.8 36.0009C17.4367 36.0009 18.0473 35.7481 18.4975 35.2982C18.9477 34.8482 19.2007 34.238 19.2007 33.6017V32.3993H33.6C34.2367 32.3993 34.8473 32.1466 35.2975 31.6966C35.7477 31.2467 36.0007 30.6365 36.0007 30.0002C36.0007 29.6851 35.9386 29.3731 35.818 29.082C35.6973 28.7909 35.5205 28.5264 35.2976 28.3036C35.0746 28.0808 34.81 27.9041 34.5187 27.7835C34.2275 27.6629 33.9153 27.6009 33.6 27.6009H19.2007V26.4002C19.2007 25.7639 18.9477 25.1536 18.4975 24.7037C18.0473 24.2538 17.4367 24.001 16.8 24.001Z" fill="#ffffff"/>
    </g>
</svg>
