<svg width="33" height="27" viewBox="0 0 33 27" fill="none" xmlns="http://www.w3.org/2000/svg">
<path fill-rule="evenodd" clip-rule="evenodd" d="M8.40254 2.08472C9.45627 0.769352 11.0765 0 12.7928 0H28.8286C29.9913 0 31.0681 0.505885 31.8344 1.34278C32.5958 2.17449 33 3.27183 33 4.3875V22.6125C33 23.7281 32.5958 24.8256 31.8344 25.6573C31.0681 26.4942 29.9913 27 28.8286 27H12.7928C11.0765 27 9.45627 26.2306 8.40254 24.9153L0.585796 15.1577C-0.195264 14.1827 -0.195267 12.8173 0.585796 11.8423L8.40254 2.08472ZM13.8813 6.8079C14.4242 6.2807 15.3045 6.2807 15.8477 6.8079L19.7804 10.6263L23.7132 6.8079C24.2562 6.2807 25.1367 6.2807 25.6796 6.8079L26.6628 7.7625C27.2059 8.2897 27.2059 9.14448 26.6628 9.67168L22.73 13.49L26.6628 17.3085C27.2059 17.8357 27.2059 18.6905 26.6628 19.2177L25.6796 20.1722C25.1367 20.6994 24.2562 20.6994 23.7132 20.1722L19.7804 16.3539L15.8477 20.1722C15.3045 20.6994 14.4242 20.6994 13.8813 20.1722L12.898 19.2177C12.355 18.6905 12.355 17.8357 12.898 17.3085L16.8309 13.49L12.898 9.67168C12.355 9.14448 12.355 8.2897 12.898 7.7625L13.8813 6.8079Z" fill="white"/>
</svg>
