<svg width="44" height="44" viewBox="0 0 44 44" fill="none" xmlns="http://www.w3.org/2000/svg">
<path d="M12.375 5.5H10.5417C7.75724 5.5 5.5 7.75724 5.5 10.5417V33.4583C5.5 36.2428 7.75724 38.5 10.5417 38.5H11V27.5C11 25.2219 12.8468 23.375 15.125 23.375H28.6057L31.8829 20.0977C33.0581 18.9226 34.6027 18.3341 36.1405 18.3333H36.1444C36.9455 18.3337 37.7483 18.4936 38.5 18.8128V15.1901C38.5 13.6099 37.8723 12.0944 36.7549 10.977L33.0231 7.24515C31.9209 6.14312 30.4317 5.51736 28.875 5.50035V13.75C28.875 16.0282 27.0281 17.875 24.75 17.875H16.5C14.2218 17.875 12.375 16.0282 12.375 13.75V5.5Z" fill="#212121"/>
<path d="M25.8557 26.125L21.0619 30.9188C20.196 31.7847 19.5818 32.8695 19.2848 34.0575L18.4457 37.4137C18.3535 37.7828 18.3174 38.1471 18.3306 38.5H13.75V27.5C13.75 26.7406 14.3656 26.125 15.125 26.125H25.8557Z" fill="#212121"/>
<path d="M26.125 5.5V13.75C26.125 14.5094 25.5094 15.125 24.75 15.125H16.5C15.7406 15.125 15.125 14.5094 15.125 13.75V5.5H26.125Z" fill="#212121"/>
<path d="M36.1445 20.1667H36.1407C35.0689 20.1672 33.9971 20.5762 33.1795 21.3941L22.3584 32.2151C21.7274 32.846 21.2798 33.6365 21.0635 34.5022L20.2244 37.8585C19.8596 39.318 21.1816 40.6402 22.6411 40.2752L25.9974 39.4361C26.8631 39.2198 27.6536 38.7722 28.2845 38.1412L39.1055 27.3201C40.7421 25.6837 40.7421 23.0305 39.1055 21.3941C38.2879 20.5762 37.2163 20.1672 36.1445 20.1667Z" fill="#212121"/>
</svg>
