<svg width="36" height="27" viewBox="0 0 36 27" fill="none" xmlns="http://www.w3.org/2000/svg">
<path d="M13.1562 23.4427C12.7466 23.8365 12.4295 24.1001 12.1055 24.2928C10.5195 25.2357 8.56547 25.2357 6.97947 24.2928C6.39501 23.9452 5.83322 23.3667 4.7096 22.2097C3.58599 21.0526 3.02418 20.4741 2.68676 19.8721C1.77108 18.2388 1.77108 16.2265 2.68676 14.5932C3.02418 13.9915 3.58599 13.4129 4.7096 12.2558L9.54249 7.27885C10.6661 6.12175 11.2279 5.54319 11.8123 5.19571C13.3984 4.25274 15.3524 4.25274 16.9384 5.1957C17.5228 5.54319 18.0846 6.12175 19.2082 7.27885C20.3319 8.43596 20.8937 9.0145 21.2311 9.61636C22.1468 11.2496 22.1468 13.2619 21.2311 14.8952C21.044 15.2288 20.7881 15.5554 20.4055 15.9772M15.5945 11.0228C15.212 11.4446 14.956 11.7712 14.7689 12.1048C13.8533 13.7381 13.8533 15.7504 14.7689 17.3836C15.1064 17.9856 15.6682 18.5642 16.7918 19.7211C17.9154 20.8782 18.4773 21.4568 19.0616 21.8043C20.6476 22.7473 22.6017 22.7473 24.1877 21.8043C24.7722 21.4568 25.334 20.8782 26.4577 19.7211L31.2905 14.7442C32.4141 13.5871 32.9759 13.0085 33.3132 12.4068C34.2289 10.7735 34.2289 8.76117 33.3132 7.12789C32.9759 6.52603 32.4141 5.94747 31.2905 4.79037C30.1669 3.63327 29.6051 3.05472 29.0207 2.70723C27.4345 1.76426 25.4806 1.76426 23.8946 2.70723C23.5705 2.89988 23.2535 3.16352 22.8438 3.55739" stroke="#D9D9D9" stroke-width="4" stroke-linecap="round"/>
</svg>
