<svg width="27" height="28" viewBox="0 0 27 28" fill="none" xmlns="http://www.w3.org/2000/svg">
<path d="M6.625 11.3717C7.2732 11.3333 8.07231 11.3333 9.1 11.3333H17.9C18.9277 11.3333 19.7268 11.3333 20.375 11.3717M6.625 11.3717C5.81606 11.4196 5.24215 11.5273 4.75229 11.7693C3.97612 12.1528 3.34508 12.7647 2.9496 13.5173C2.5 14.3731 2.5 15.4931 2.5 17.7333V19.6C2.5 21.8403 2.5 22.9603 2.9496 23.816C3.34508 24.5687 3.97612 25.1805 4.75229 25.564C5.63467 26 6.78978 26 9.1 26H17.9C20.2103 26 21.3653 26 22.2478 25.564C23.0239 25.1805 23.6549 24.5687 24.0504 23.816C24.5 22.9603 24.5 21.8403 24.5 19.6V17.7333C24.5 15.4931 24.5 14.3731 24.0504 13.5173C23.6549 12.7647 23.0239 12.1528 22.2478 11.7693C21.7578 11.5273 21.1839 11.4196 20.375 11.3717M6.625 11.3717V8.66667C6.625 4.98477 9.70305 2 13.5 2C17.2969 2 20.375 4.98477 20.375 8.66667V11.3717" stroke="#D9D9D9" stroke-width="4" stroke-linecap="round" stroke-linejoin="round"/>
</svg>
